# xmcd CD database file
#
# Track frame offsets:
#	150
#	15485
#	31534
#	49535
#	61930
#	75833
#	88873
#	107470
#	123261
#	139677
#	154821
#	169572
#	185221
#	199736
#	216254
#	230156
#	244128
#	260001
#	276506
#	293831
#
# Disc length: 4168 seconds
#
# Revision: 0
# Processed by: cddbd v1.5.2PL0 Copyright (c) Steve Scherf et al.
# Submitted via: CDex 1.70beta2
#
DISCID=15104614
DTITLE=Various Artist - Pop Country Girls
DYEAR=2009
DGENRE=Country
TTITLE0=Sinead Burgess - You Get me
TTITLE1=Leann Rimes - Can't Fight The Moonlight
TTITLE2=Sara Evans - A Real Fine Place To Start
TTITLE3=Jasmine Rae - Did I Just Say That
TTITLE4=Miranda Lambert - Kerosene
TTITLE5=Jessica Simpson - Come On over
TTITLE6=Whitney Duncan - When I Said I Would
TTITLE7=Deana Carter - There's No Limit
TTITLE8=Sherrie Austin - Never Been Kissed
TTITLE9=McClymonts - My life Again
TTITLE10=Amanda Wilkinson - Walk Away
TTITLE11=Julianne Hough - My Hallelujah Song
TTITLE12=Shea Fisher - Just The Excuse
TTITLE13=Danielle Blakey - Driving Song
TTITLE14=Kirsty Lee Akers - Goin' To The Beach
TTITLE15=Amber Lawrence - Things That Bring Me Down
TTITLE16=Victoria Baillie - Melt
TTITLE17=Cat Southern - Last First Kiss
TTITLE18=Jetty Road - City Lights
TTITLE19=Kaylah Anne - Why Me
EXTD=YEAR: 2009
EXTT0=
EXTT1=
EXTT2=
EXTT3=
EXTT4=
EXTT5=
EXTT6=
EXTT7=
EXTT8=
EXTT9=
EXTT10=
EXTT11=
EXTT12=
EXTT13=
EXTT14=
EXTT15=
EXTT16=
EXTT17=
EXTT18=
EXTT19=
PLAYORDER=
